#N canvas 0 0 1334 658 10;
#X obj 213 438 dac~;
#X obj 706 257 soundfiler;
#X obj 708 288 table kick;
#X text 555 82 Process: 1 load drum sounds into table \, sequentially
2 read from table at series of numbers 3 keyboard to number??;
#X msg 706 203 read -resize C:/Users/Duck/Desktop/Codex/pure_data_projects/pd-guitar-looper/test_sounds/test_kick.wav
kick;
#X obj 213 303 *~;
#X obj 213 405 *~;
#X obj 213 334 tabread4~ kick;
#X floatatom 263 361 5 0 0 0 - - -, f 5;
#X floatatom 317 132 5 0 0 0 - - -, f 5;
#X floatatom 285 269 8 0 0 0 - - -, f 8;
#X obj 320 212 *;
#X msg 351 151 39000;
#X obj 213 108 r trgr;
#X obj 563 479 s trgr;
#X msg 537 432 1;
#X msg 608 434 0;
#X text 621 132 keys: 1:49 -> 4:52;
#X text 621 152 q: 113 \, w: \, e: \, r:;
#X obj 710 346 key;
#X obj 235 151 pow -1;
#X obj 213 224 phasor~ 1;
#X obj 706 180 loadbang;
#X obj 213 270 +~;
#X obj 343 241 hsl 128 15 0 1 0 0 empty empty empty -2 -8 0 10 -262144
-1 -1 0 1;
#X obj 710 372 s sample_switch;
#X obj 559 345 r sample_switch;
#X obj 559 367 route 109 110;
#X obj 235 198 *;
#X floatatom 163 174 5 0 0 0 - - -, f 5;
#X msg 163 152 bang;
#X connect 4 0 1 0;
#X connect 5 0 7 0;
#X connect 6 0 0 0;
#X connect 7 0 6 0;
#X connect 8 0 6 1;
#X connect 9 0 11 0;
#X connect 9 0 20 0;
#X connect 10 0 5 1;
#X connect 11 0 10 0;
#X connect 12 0 11 1;
#X connect 13 0 21 0;
#X connect 13 0 9 0;
#X connect 15 0 14 0;
#X connect 16 0 14 0;
#X connect 19 0 25 0;
#X connect 20 0 28 1;
#X connect 20 0 30 0;
#X connect 21 0 23 0;
#X connect 22 0 4 0;
#X connect 23 0 5 0;
#X connect 24 0 23 1;
#X connect 26 0 27 0;
#X connect 27 0 15 0;
#X connect 27 1 16 0;
#X connect 28 0 21 0;
#X connect 29 0 28 0;
#X connect 30 0 29 0;
