#N canvas -8 -8 1350 674 10;
#X obj 232 594 *~ 0.1;
#X obj 231 631 dac~;
#X obj 217 392 snapshot~;
#X obj 266 330 bng 15 250 50 0 empty empty empty 17 7 0 10 -262144
-1 -1;
#X floatatom 218 420 5 0 0 0 - - -, f 5;
#X obj 261 473 *;
#X obj 201 343 osc~ 0.1;
#X obj 231 554 osc~;
#X floatatom 231 521 5 0 0 0 - - -, f 5;
#X floatatom 303 451 5 0 0 0 - - -, f 5;
#X obj 220 449 + 1;
#X floatatom 176 297 5 0 0 0 - - -, f 5;
#X obj 268 364 metro 50;
#X floatatom 306 326 5 0 0 0 - - -, f 5;
#X obj 101 161 snapshot~;
#X obj 169 99 bng 15 250 50 0 empty empty empty 17 7 0 10 -262144 -1
-1;
#X floatatom 102 189 5 0 0 0 - - -, f 5;
#X obj 145 242 *;
#X obj 85 112 osc~ 0.1;
#X floatatom 191 220 5 0 0 0 - - -, f 5;
#X obj 104 218 + 1;
#X floatatom 63 44 5 0 0 0 - - -, f 5;
#X obj 171 133 metro 50;
#X floatatom 215 102 5 0 0 0 - - -, f 5;
#X obj 390 247 snapshot~;
#X obj 458 185 bng 15 250 50 0 empty empty empty 17 7 0 10 -262144
-1 -1;
#X floatatom 391 275 5 0 0 0 - - -, f 5;
#X obj 434 328 *;
#X obj 374 198 osc~ 0.1;
#X floatatom 480 306 5 0 0 0 - - -, f 5;
#X obj 393 304 + 1;
#X floatatom 352 130 5 0 0 0 - - -, f 5;
#X obj 460 219 metro 50;
#X floatatom 504 183 5 0 0 0 - - -, f 5;
#X connect 0 0 1 0;
#X connect 2 0 4 0;
#X connect 3 0 12 0;
#X connect 4 0 10 0;
#X connect 5 0 8 0;
#X connect 6 0 2 0;
#X connect 7 0 0 0;
#X connect 8 0 7 0;
#X connect 9 0 5 1;
#X connect 10 0 5 0;
#X connect 11 0 6 0;
#X connect 12 0 2 0;
#X connect 13 0 12 1;
#X connect 14 0 16 0;
#X connect 15 0 22 0;
#X connect 16 0 20 0;
#X connect 17 0 11 0;
#X connect 18 0 14 0;
#X connect 19 0 17 1;
#X connect 20 0 17 0;
#X connect 21 0 18 0;
#X connect 22 0 14 0;
#X connect 23 0 22 1;
#X connect 24 0 26 0;
#X connect 25 0 32 0;
#X connect 26 0 30 0;
#X connect 27 0 9 0;
#X connect 28 0 24 0;
#X connect 29 0 27 1;
#X connect 30 0 27 0;
#X connect 31 0 28 0;
#X connect 32 0 24 0;
#X connect 33 0 32 1;
